<?xml version="1.0" encoding="UTF-8"?><svg id="_0052_scooter" xmlns="http://www.w3.org/2000/svg" viewBox="0 0 500 500"><defs><style>.cls-1{fill:#fff;}.cls-2{opacity:.11;}.cls-2,.cls-3,.cls-4,.cls-5,.cls-6,.cls-7,.cls-8{fill:none;}.cls-9{fill:#f4a28c;}.cls-3{opacity:.46;}.cls-4{opacity:.17;}.cls-5{opacity:.02;}.cls-6{opacity:.51;}.cls-7{opacity:.05;}.cls-8{opacity:.08;}.cls-10{fill:#24285b;}.cls-11{fill:#000001;}.cls-12{fill:#ffd200;}.cls-13{fill:#68e1fd;}</style></defs><g id="sd" class="cls-5"><ellipse class="cls-11" cx="221.08" cy="433.41" rx="212.67" ry="25.06"/></g><g id="rider"><g class="cls-7"><path class="cls-11" d="m358.66,339.52s41.02,5.45,42.58-16.73c1.56-22.18-6.74-24.98,10.89-32.39,17.63-7.42,5.19,17.44,19.71,14.61,14.52-2.83-5.19-26.15,7.78-31.61,12.96-5.46,35.26,3.88,28.52,22.03-6.74,18.15-24.89,14.28-25.93,27.36-1.04,13.09,22.82,26.04,2.07,36.16-10.95,5.34-19.87,1.63-25.86-3.06s-13.03-6.44-20.13-4.94c-7.91,1.67-19.09,1.93-31.26-4.25l-8.37-7.17Z"/></g><path class="cls-13" d="m183.62,358.7s-.52,7.28-6.35,9.47-5.75,8.47.05,8.48c5.8,0,17.71-10.79,17.71-10.79l-2.81-8.51-8.59,1.36Z"/><g class="cls-8"><path class="cls-11" d="m183.62,358.7s-.52,7.28-6.35,9.47-5.75,8.47.05,8.48c5.8,0,17.71-10.79,17.71-10.79l-2.81-8.51-8.59,1.36Z"/></g><path class="cls-9" d="m182.74,221.82s-22.17-8.65-24.35,0c-2.18,8.65,27.67,12.56,27.67,12.56l-3.32-12.56Z"/><g class="cls-8"><path class="cls-11" d="m182.74,221.82s-22.17-8.65-24.35,0c-2.18,8.65,27.67,12.56,27.67,12.56l-3.32-12.56Z"/></g><path class="cls-9" d="m139.7,78.77s-1.08,14.55,1.49,24.18c1.04,3.91,5.12,6.26,9.01,5.17,4.83-1.36,10.97-4.61,12.5-12.33l4.2-12.79s2.35-8.11-5.95-13.92c-8.3-5.81-21.03.8-21.25,9.7Z"/><polygon class="cls-9" points="153.15 82.1 196.49 102.26 183.68 125.35 157.95 102.01 153.15 82.1"/><path class="cls-10" d="m143.33,79.33c2.55.1,7.22.03,13.43-1.2,0,0-4.48,6.41.17,13.34,4.65,6.94,12.01,3.8,12.01,3.8l-.48-18.73c.03-5.46-2.9-10.53-7.69-13.15-1.96-1.07-4.12-2.14-6.3-2.98-5.42-2.1-13.28,1.6-18.16-1.98-2.14-1.57-5.19-.26-5.55,2.37-.77,5.71.36,14.67,8.11,17.69,1.42.55,2.93.78,4.45.84Z"/><path class="cls-9" d="m155.36,91.06s.04-5.62,4.26-5.24c4.22.38,4.22,8.49-1.51,9.32l-2.76-4.09Z"/><path class="cls-9" d="m139.5,87.97l-3.99,5.67c-.99,1.4-.18,3.35,1.51,3.65l5.59.98-3.1-10.29Z"/><path class="cls-13" d="m182.15,221.59l50.15-12.72s-50.78-20.93-38.47-58.61c12.31-37.68,80.99,69.51,80.99,69.51l-87.9,15.63-4.76-13.81Z"/><g class="cls-8"><path class="cls-11" d="m182.15,221.59l50.15-12.72s-50.78-20.93-38.47-58.61c12.31-37.68,80.99,69.51,80.99,69.51l-87.9,15.63-4.76-13.81Z"/></g><path class="cls-10" d="m379.11,243.39s5.09,47.24-53.05,43.61c-29.86-1.87-64.43-2.29-90.98-2.27-22.55.02-39.62,20.37-35.72,42.58l4.97,28.37-19.26,4.33-7.29-30.81c-8.51-35.94,12.48-72.28,47.86-82.88l36.47-10.92,117.01,7.99Z"/><path class="cls-10" d="m214.35,247.62s-46.36,10.67-44.18,63.54l9.81,48.85,12.86-2.39s-13.41-93.88,35.65-106.41v-5.74l-14.14,2.15Z"/><path class="cls-13" d="m174.49,134.28l22-32.03s22.73-11.45,71.42-7.11c48.69,4.34,118.46,42.13,111.2,148.24l-104.43,2.54s23.31-32.97-20.3-35.15c-43.61-2.18-96.53-15.03-79.89-76.5Z"/><g class="cls-8"><path class="cls-11" d="m262.78,138.81s75.42,11.56,78.17,105.51l-74.6,3.24,11.2-36.78-14.77-71.97Z"/></g><path class="cls-10" d="m236.93,84.41s-61.73,3.82-62.11,48.51c-.38,44.7,33.97,65.97,68.92,73.93,42.79,9.74,86.02-13.38,97.2-60.48l-16.53-15.63s-9.81,47.97-54.51,44.7c-44.7-3.27-116.57-56.96-17.79-76.16l-15.18-14.87Z"/><path class="cls-13" d="m225.79,118.17c-19.92-7.2-39.29,12.21-31.96,32.08.1.28.21.55.32.83,10.9,27.98,67.95,62.14,67.95,62.14l-77.04,13.08,3.63,17.81s81.4,15.63,111.2-8.72c27.36-22.36-10.84-94.34-74.1-117.22Z"/><g class="cls-3"><path class="cls-1" d="m225.79,118.17c-19.92-7.2-39.29,12.21-31.96,32.08.1.28.21.55.32.83,10.9,27.98,67.95,62.14,67.95,62.14l-77.04,13.08,3.63,17.81s81.4,15.63,111.2-8.72c27.36-22.36-10.84-94.34-74.1-117.22Z"/></g><polygon class="cls-10" points="246.96 406.18 318.99 406.18 370.02 354.86 355.49 330.96 256.65 366.21 246.96 406.18"/><path class="cls-10" d="m227.94,95.98s-6-36.65,23.98-48.09c28.22-10.77,108.58,3.56,132.93,76.63,2.78,8.33-.11,17.51-7.04,22.9l-8.46,6.59c-11.51,8.96-28.2,6.97-37.06-4.61-16.17-21.14-48.2-49.87-104.36-53.41Z"/><path class="cls-12" d="m144.23,211.07l-8.98,1.22c-8.16,1.11-13.82,8.71-12.54,16.84l1.09,6.94c1.17,7.47,7.61,12.98,15.17,12.98h.51s-50.35,43.39-57.25,75.37l56.22,68.07c7.16,8.67,17.82,13.69,29.07,13.69h79.45s22.04-54.87,118.34-59.23c0,0,9.81-25.44-16.72-47.97l-101.62,6.9-22.31,14.9,2.81,19.42c1.97,13.63-5.97,26.75-18.96,31.33h0c-15.81,5.57-33.38.48-43.8-12.65-15.17-19.11-28.99-51.11-6.52-93.7,0,0,28.23-40.09,1.2-52.18-4.73-2.12-10.01-2.63-15.15-1.94Z"/><polygon class="cls-12" points="131.82 213.2 138.97 249.05 122.92 249.05 117.84 217.95 131.82 213.2"/><g class="cls-6"><polygon class="cls-1" points="131.82 213.2 138.97 249.05 122.92 249.05 117.84 217.95 131.82 213.2"/></g><path class="cls-9" d="m185.06,230.02s-22.17-8.65-24.35,0c-2.18,8.65,27.67,12.56,27.67,12.56l-3.32-12.56Z"/><circle class="cls-12" cx="160.6" cy="237.52" r="8.41"/><circle class="cls-10" cx="75.82" cy="390.24" r="45.19"/><circle class="cls-1" cx="75.82" cy="390.24" r="30.24"/><path class="cls-13" d="m75.82,423.43c-18.3,0-33.19-14.89-33.19-33.19s14.89-33.19,33.19-33.19,33.19,14.89,33.19,33.19-14.89,33.19-33.19,33.19Zm0-60.47c-15.04,0-27.28,12.24-27.28,27.28s12.24,27.28,27.28,27.28,27.28-12.24,27.28-27.28-12.24-27.28-27.28-27.28Z"/><g class="cls-2"><path class="cls-1" d="m292.62,366.94s-17.81,21.8-21.44,39.25h41.43l13.45-23.98-12.72-22.19-20.71,6.93Z"/></g><circle class="cls-10" cx="349.4" cy="390.24" r="45.19"/><circle class="cls-1" cx="349.4" cy="390.24" r="30.24"/><path class="cls-13" d="m349.4,423.43c-18.3,0-33.19-14.89-33.19-33.19s14.89-33.19,33.19-33.19,33.19,14.89,33.19,33.19-14.89,33.19-33.19,33.19Zm0-60.47c-15.04,0-27.28,12.24-27.28,27.28s12.24,27.28,27.28,27.28,27.28-12.24,27.28-27.28-12.24-27.28-27.28-27.28Z"/><g class="cls-8"><circle class="cls-11" cx="160.6" cy="237.52" r="8.41"/></g><path class="cls-12" d="m82.22,324.42s-25.78,3.05-39.08,24.64c-2.36,3.82.95,8.6,5.37,7.83,15.51-2.69,47.07-2.6,83.99,28.41l-50.28-60.88Z"/><g class="cls-8"><path class="cls-11" d="m82.22,324.42s-25.78,3.05-39.08,24.64c-2.36,3.82.95,8.6,5.37,7.83,15.51-2.69,47.07-2.6,83.99,28.41l-50.28-60.88Z"/></g><path class="cls-12" d="m226.24,320.79s-22.87-18.35-13.06-34.16c9.81-15.81,56.14,1.09,92.12-10.9,35.97-11.99,69.59-2.54,44.88,23.26l-123.93,21.8Z"/><g class="cls-4"><path class="cls-11" d="m226.24,320.79s-22.87-18.35-13.06-34.16c9.81-15.81,56.14,1.09,92.12-10.9,35.97-11.99,69.59-2.54,44.88,23.26l-123.93,21.8Z"/></g><ellipse class="cls-12" cx="285.45" cy="46.53" rx="7.9" ry="14.99" transform="translate(196.33 321.67) rotate(-81.31)"/><path class="cls-12" d="m269.88,378.32s-24.92-24.46,0-43.35c22.32-16.93,73.41-27.44,105.62-4.89,5.49,3.84,4.63,12.24-1.41,15.14-21.49,10.31-68.13,30.76-104.21,33.11Z"/><g class="cls-8"><path class="cls-11" d="m269.88,378.32s-24.92-24.46,0-43.35c22.32-16.93,73.41-27.44,105.62-4.89,5.49,3.84,4.63,12.24-1.41,15.14-21.49,10.31-68.13,30.76-104.21,33.11Z"/></g><path class="cls-12" d="m379.01,338.7s6.78,11.87,20.08,21.87c2.65,2,.54,6.14-2.64,5.2-9.08-2.67-20.37-7.88-29.38-18.03l11.94-9.05Z"/><path class="cls-13" d="m133.84,53.66c-3.95,2.62-6.6,6.85-7.25,11.54-.74,5.28-.37,11.85,5.15,14.3,9.81,4.36,21.42,2.6,21.42,2.6,0,0-.98,18.93,12.65,18.11s16.08-23.17,11.69-34.61c-4.09-10.66-19.91-27.71-43.65-11.94Z"/><path class="cls-10" d="m127.32,74.89s-19.57,11.15-10.85,14.42c8.72,3.27,36.68-7.21,36.68-7.21,0,0-22.06,2.35-25.83-7.21Z"/><path class="cls-13" d="m192.84,357.61s-.52,7.28-6.35,9.47c-5.83,2.19-5.75,8.47.05,8.48,5.8,0,17.71-10.79,17.71-10.79l-2.81-8.51-8.59,1.36Z"/><g class="cls-3"><circle class="cls-1" cx="163.36" cy="80.53" r="8"/></g><g class="cls-4"><path class="cls-1" d="m120.06,299.12c.51-5.53-6.61-8.25-9.95-3.81-8.13,10.81-15.43,23.81-11.14,31.63,8.37,15.25,18.49,18.21,22.04,7.87,2.51-7.3-2.46-19.44-.95-35.7Z"/></g></g></svg>